<svg width="1280" height="464" viewBox="0 0 1280 464" fill="none" xmlns="http://www.w3.org/2000/svg">
<rect width="1280" height="464" fill="#E5E5E5"/>
<g clip-path="url(#clip0_0_1)">
<rect width="1280" height="720" transform="translate(0 -90)" fill="#F2F2F2"/>
<g filter="url(#filter0_d_0_1)">
<rect width="1280" height="464" fill="#726A94"/>
</g>
<path d="M754.15 197.467C752.1 197.467 750.512 198.24 749.387 199.787C748.262 201.322 747.699 203.467 747.699 206.221C747.699 211.951 749.85 214.816 754.15 214.816C755.955 214.816 758.141 214.365 760.707 213.463V218.033C758.598 218.912 756.242 219.352 753.641 219.352C749.902 219.352 747.043 218.221 745.062 215.959C743.082 213.686 742.092 210.428 742.092 206.186C742.092 203.514 742.578 201.176 743.551 199.172C744.523 197.156 745.918 195.615 747.734 194.549C749.562 193.471 751.701 192.932 754.15 192.932C756.646 192.932 759.154 193.535 761.674 194.742L759.916 199.172C758.955 198.715 757.988 198.316 757.016 197.977C756.043 197.637 755.088 197.467 754.15 197.467ZM783.91 219H778.549V207.521C778.549 204.686 777.494 203.268 775.385 203.268C773.885 203.268 772.801 203.777 772.133 204.797C771.465 205.816 771.131 207.469 771.131 209.754V219H765.77V191.648H771.131V197.221C771.131 197.654 771.09 198.674 771.008 200.279L770.885 201.861H771.166C772.361 199.939 774.26 198.979 776.861 198.979C779.17 198.979 780.922 199.6 782.117 200.842C783.312 202.084 783.91 203.865 783.91 206.186V219ZM801.91 219L800.873 216.328H800.732C799.83 217.465 798.898 218.256 797.938 218.701C796.988 219.135 795.746 219.352 794.211 219.352C792.324 219.352 790.836 218.812 789.746 217.734C788.668 216.656 788.129 215.121 788.129 213.129C788.129 211.043 788.855 209.508 790.309 208.523C791.773 207.527 793.977 206.977 796.918 206.871L800.328 206.766V205.904C800.328 203.912 799.309 202.916 797.27 202.916C795.699 202.916 793.854 203.391 791.732 204.34L789.957 200.719C792.219 199.535 794.727 198.943 797.48 198.943C800.117 198.943 802.139 199.518 803.545 200.666C804.951 201.814 805.654 203.561 805.654 205.904V219H801.91ZM800.328 209.895L798.254 209.965C796.695 210.012 795.535 210.293 794.773 210.809C794.012 211.324 793.631 212.109 793.631 213.164C793.631 214.676 794.498 215.432 796.232 215.432C797.475 215.432 798.465 215.074 799.203 214.359C799.953 213.645 800.328 212.695 800.328 211.512V209.895ZM829.332 219H823.971V207.521C823.971 206.104 823.719 205.043 823.215 204.34C822.711 203.625 821.908 203.268 820.807 203.268C819.307 203.268 818.223 203.771 817.555 204.779C816.887 205.775 816.553 207.434 816.553 209.754V219H811.191V199.348H815.287L816.008 201.861H816.307C816.904 200.912 817.725 200.197 818.768 199.717C819.822 199.225 821.018 198.979 822.354 198.979C824.639 198.979 826.373 199.6 827.557 200.842C828.74 202.072 829.332 203.854 829.332 206.186V219ZM851.955 199.348V202.072L848.879 202.863C849.441 203.742 849.723 204.727 849.723 205.816C849.723 207.926 848.984 209.572 847.508 210.756C846.043 211.928 844.004 212.514 841.391 212.514L840.424 212.461L839.633 212.373C839.082 212.795 838.807 213.264 838.807 213.779C838.807 214.553 839.791 214.939 841.76 214.939H845.1C847.256 214.939 848.896 215.402 850.021 216.328C851.158 217.254 851.727 218.613 851.727 220.406C851.727 222.703 850.766 224.484 848.844 225.75C846.934 227.016 844.186 227.648 840.6 227.648C837.857 227.648 835.76 227.168 834.307 226.207C832.865 225.258 832.145 223.922 832.145 222.199C832.145 221.016 832.514 220.025 833.252 219.229C833.99 218.432 835.074 217.863 836.504 217.523C835.953 217.289 835.473 216.908 835.062 216.381C834.652 215.842 834.447 215.273 834.447 214.676C834.447 213.926 834.664 213.305 835.098 212.812C835.531 212.309 836.158 211.816 836.979 211.336C835.947 210.891 835.127 210.176 834.518 209.191C833.92 208.207 833.621 207.047 833.621 205.711C833.621 203.566 834.318 201.908 835.713 200.736C837.107 199.564 839.1 198.979 841.689 198.979C842.24 198.979 842.891 199.031 843.641 199.137C844.402 199.23 844.889 199.301 845.1 199.348H851.955ZM836.785 221.777C836.785 222.516 837.137 223.096 837.84 223.518C838.555 223.939 839.551 224.15 840.828 224.15C842.75 224.15 844.256 223.887 845.346 223.359C846.436 222.832 846.98 222.111 846.98 221.197C846.98 220.459 846.658 219.949 846.014 219.668C845.369 219.387 844.373 219.246 843.025 219.246H840.248C839.264 219.246 838.438 219.475 837.77 219.932C837.113 220.4 836.785 221.016 836.785 221.777ZM838.736 205.781C838.736 206.848 838.977 207.691 839.457 208.312C839.949 208.934 840.693 209.244 841.689 209.244C842.697 209.244 843.436 208.934 843.904 208.312C844.373 207.691 844.607 206.848 844.607 205.781C844.607 203.414 843.635 202.23 841.689 202.23C839.721 202.23 838.736 203.414 838.736 205.781ZM854.979 194.268C854.979 192.521 855.951 191.648 857.896 191.648C859.842 191.648 860.814 192.521 860.814 194.268C860.814 195.1 860.568 195.75 860.076 196.219C859.596 196.676 858.869 196.904 857.896 196.904C855.951 196.904 854.979 196.025 854.979 194.268ZM860.568 219H855.207V199.348H860.568V219ZM884.352 219H878.99V207.521C878.99 206.104 878.738 205.043 878.234 204.34C877.73 203.625 876.928 203.268 875.826 203.268C874.326 203.268 873.242 203.771 872.574 204.779C871.906 205.775 871.572 207.434 871.572 209.754V219H866.211V199.348H870.307L871.027 201.861H871.326C871.924 200.912 872.744 200.197 873.787 199.717C874.842 199.225 876.037 198.979 877.373 198.979C879.658 198.979 881.393 199.6 882.576 200.842C883.76 202.072 884.352 203.854 884.352 206.186V219ZM906.975 199.348V202.072L903.898 202.863C904.461 203.742 904.742 204.727 904.742 205.816C904.742 207.926 904.004 209.572 902.527 210.756C901.062 211.928 899.023 212.514 896.41 212.514L895.443 212.461L894.652 212.373C894.102 212.795 893.826 213.264 893.826 213.779C893.826 214.553 894.811 214.939 896.779 214.939H900.119C902.275 214.939 903.916 215.402 905.041 216.328C906.178 217.254 906.746 218.613 906.746 220.406C906.746 222.703 905.785 224.484 903.863 225.75C901.953 227.016 899.205 227.648 895.619 227.648C892.877 227.648 890.779 227.168 889.326 226.207C887.885 225.258 887.164 223.922 887.164 222.199C887.164 221.016 887.533 220.025 888.271 219.229C889.01 218.432 890.094 217.863 891.523 217.523C890.973 217.289 890.492 216.908 890.082 216.381C889.672 215.842 889.467 215.273 889.467 214.676C889.467 213.926 889.684 213.305 890.117 212.812C890.551 212.309 891.178 211.816 891.998 211.336C890.967 210.891 890.146 210.176 889.537 209.191C888.939 208.207 888.641 207.047 888.641 205.711C888.641 203.566 889.338 201.908 890.732 200.736C892.127 199.564 894.119 198.979 896.709 198.979C897.26 198.979 897.91 199.031 898.66 199.137C899.422 199.23 899.908 199.301 900.119 199.348H906.975ZM891.805 221.777C891.805 222.516 892.156 223.096 892.859 223.518C893.574 223.939 894.57 224.15 895.848 224.15C897.77 224.15 899.275 223.887 900.365 223.359C901.455 222.832 902 222.111 902 221.197C902 220.459 901.678 219.949 901.033 219.668C900.389 219.387 899.393 219.246 898.045 219.246H895.268C894.283 219.246 893.457 219.475 892.789 219.932C892.133 220.4 891.805 221.016 891.805 221.777ZM893.756 205.781C893.756 206.848 893.996 207.691 894.477 208.312C894.969 208.934 895.713 209.244 896.709 209.244C897.717 209.244 898.455 208.934 898.924 208.312C899.393 207.691 899.627 206.848 899.627 205.781C899.627 203.414 898.654 202.23 896.709 202.23C894.74 202.23 893.756 203.414 893.756 205.781ZM920 219V193.301H925.449V214.5H935.873V219H920ZM939.705 194.268C939.705 192.521 940.678 191.648 942.623 191.648C944.568 191.648 945.541 192.521 945.541 194.268C945.541 195.1 945.295 195.75 944.803 196.219C944.322 196.676 943.596 196.904 942.623 196.904C940.678 196.904 939.705 196.025 939.705 194.268ZM945.295 219H939.934V199.348H945.295V219ZM955.613 219L948.125 199.348H953.732L957.529 210.545C957.951 211.963 958.215 213.305 958.32 214.57H958.426C958.484 213.445 958.748 212.104 959.217 210.545L962.996 199.348H968.604L961.115 219H955.613ZM979.572 202.793C978.436 202.793 977.545 203.156 976.9 203.883C976.256 204.598 975.887 205.617 975.793 206.941H983.316C983.293 205.617 982.947 204.598 982.279 203.883C981.611 203.156 980.709 202.793 979.572 202.793ZM980.328 219.352C977.164 219.352 974.691 218.479 972.91 216.732C971.129 214.986 970.238 212.514 970.238 209.314C970.238 206.021 971.059 203.479 972.699 201.686C974.352 199.881 976.631 198.979 979.537 198.979C982.314 198.979 984.477 199.77 986.023 201.352C987.57 202.934 988.344 205.119 988.344 207.908V210.51H975.67C975.729 212.033 976.18 213.223 977.023 214.078C977.867 214.934 979.051 215.361 980.574 215.361C981.758 215.361 982.877 215.238 983.932 214.992C984.986 214.746 986.088 214.354 987.236 213.814V217.963C986.299 218.432 985.297 218.777 984.23 219C983.164 219.234 981.863 219.352 980.328 219.352ZM1006.41 213.164C1006.41 215.18 1005.71 216.715 1004.3 217.77C1002.91 218.824 1000.82 219.352 998.029 219.352C996.6 219.352 995.381 219.252 994.373 219.053C993.365 218.865 992.422 218.584 991.543 218.209V213.779C992.539 214.248 993.658 214.641 994.9 214.957C996.154 215.273 997.256 215.432 998.205 215.432C1000.15 215.432 1001.12 214.869 1001.12 213.744C1001.12 213.322 1000.99 212.982 1000.74 212.725C1000.48 212.455 1000.03 212.156 999.4 211.828C998.768 211.488 997.924 211.096 996.869 210.65C995.357 210.018 994.244 209.432 993.529 208.893C992.826 208.354 992.311 207.738 991.982 207.047C991.666 206.344 991.508 205.482 991.508 204.463C991.508 202.717 992.182 201.369 993.529 200.42C994.889 199.459 996.811 198.979 999.295 198.979C1001.66 198.979 1003.96 199.494 1006.2 200.525L1004.59 204.393C1003.6 203.971 1002.68 203.625 1001.83 203.355C1000.97 203.086 1000.1 202.951 999.207 202.951C997.625 202.951 996.834 203.379 996.834 204.234C996.834 204.715 997.086 205.131 997.59 205.482C998.105 205.834 999.225 206.355 1000.95 207.047C1002.48 207.668 1003.61 208.248 1004.32 208.787C1005.04 209.326 1005.56 209.947 1005.9 210.65C1006.24 211.354 1006.41 212.191 1006.41 213.164Z" fill="white"/>
<path d="M759.539 154.484C759.539 157.578 758.422 160.016 756.188 161.797C753.969 163.578 750.875 164.469 746.906 164.469C743.25 164.469 740.016 163.781 737.203 162.406V155.656C739.516 156.688 741.469 157.414 743.062 157.836C744.672 158.258 746.141 158.469 747.469 158.469C749.062 158.469 750.281 158.164 751.125 157.555C751.984 156.945 752.414 156.039 752.414 154.836C752.414 154.164 752.227 153.57 751.852 153.055C751.477 152.523 750.922 152.016 750.188 151.531C749.469 151.047 747.992 150.273 745.758 149.211C743.664 148.227 742.094 147.281 741.047 146.375C740 145.469 739.164 144.414 738.539 143.211C737.914 142.008 737.602 140.602 737.602 138.992C737.602 135.961 738.625 133.578 740.672 131.844C742.734 130.109 745.578 129.242 749.203 129.242C750.984 129.242 752.68 129.453 754.289 129.875C755.914 130.297 757.609 130.891 759.375 131.656L757.031 137.305C755.203 136.555 753.688 136.031 752.484 135.734C751.297 135.438 750.125 135.289 748.969 135.289C747.594 135.289 746.539 135.609 745.805 136.25C745.07 136.891 744.703 137.727 744.703 138.758C744.703 139.398 744.852 139.961 745.148 140.445C745.445 140.914 745.914 141.375 746.555 141.828C747.211 142.266 748.75 143.062 751.172 144.219C754.375 145.75 756.57 147.289 757.758 148.836C758.945 150.367 759.539 152.25 759.539 154.484ZM779.578 164.469C776.5 164.469 774.086 163.352 772.336 161.117H771.961C772.211 163.305 772.336 164.57 772.336 164.914V175.531H765.188V137.797H771L772.008 141.195H772.336C774.008 138.602 776.484 137.305 779.766 137.305C782.859 137.305 785.281 138.5 787.031 140.891C788.781 143.281 789.656 146.602 789.656 150.852C789.656 153.648 789.242 156.078 788.414 158.141C787.602 160.203 786.438 161.773 784.922 162.852C783.406 163.93 781.625 164.469 779.578 164.469ZM777.469 143.023C775.703 143.023 774.414 143.57 773.602 144.664C772.789 145.742 772.367 147.531 772.336 150.031V150.805C772.336 153.617 772.75 155.633 773.578 156.852C774.422 158.07 775.75 158.68 777.562 158.68C780.766 158.68 782.367 156.039 782.367 150.758C782.367 148.18 781.969 146.25 781.172 144.969C780.391 143.672 779.156 143.023 777.469 143.023ZM810.188 137.305C811.156 137.305 811.961 137.375 812.602 137.516L812.062 144.219C811.484 144.062 810.781 143.984 809.953 143.984C807.672 143.984 805.891 144.57 804.609 145.742C803.344 146.914 802.711 148.555 802.711 150.664V164H795.562V137.797H800.977L802.031 142.203H802.383C803.195 140.734 804.289 139.555 805.664 138.664C807.055 137.758 808.562 137.305 810.188 137.305ZM828.211 142.391C826.695 142.391 825.508 142.875 824.648 143.844C823.789 144.797 823.297 146.156 823.172 147.922H833.203C833.172 146.156 832.711 144.797 831.82 143.844C830.93 142.875 829.727 142.391 828.211 142.391ZM829.219 164.469C825 164.469 821.703 163.305 819.328 160.977C816.953 158.648 815.766 155.352 815.766 151.086C815.766 146.695 816.859 143.305 819.047 140.914C821.25 138.508 824.289 137.305 828.164 137.305C831.867 137.305 834.75 138.359 836.812 140.469C838.875 142.578 839.906 145.492 839.906 149.211V152.68H823.008C823.086 154.711 823.688 156.297 824.812 157.438C825.938 158.578 827.516 159.148 829.547 159.148C831.125 159.148 832.617 158.984 834.023 158.656C835.43 158.328 836.898 157.805 838.43 157.086V162.617C837.18 163.242 835.844 163.703 834.422 164C833 164.312 831.266 164.469 829.219 164.469ZM862.359 164L860.977 160.438H860.789C859.586 161.953 858.344 163.008 857.062 163.602C855.797 164.18 854.141 164.469 852.094 164.469C849.578 164.469 847.594 163.75 846.141 162.312C844.703 160.875 843.984 158.828 843.984 156.172C843.984 153.391 844.953 151.344 846.891 150.031C848.844 148.703 851.781 147.969 855.703 147.828L860.25 147.688V146.539C860.25 143.883 858.891 142.555 856.172 142.555C854.078 142.555 851.617 143.188 848.789 144.453L846.422 139.625C849.438 138.047 852.781 137.258 856.453 137.258C859.969 137.258 862.664 138.023 864.539 139.555C866.414 141.086 867.352 143.414 867.352 146.539V164H862.359ZM860.25 151.859L857.484 151.953C855.406 152.016 853.859 152.391 852.844 153.078C851.828 153.766 851.32 154.812 851.32 156.219C851.32 158.234 852.477 159.242 854.789 159.242C856.445 159.242 857.766 158.766 858.75 157.812C859.75 156.859 860.25 155.594 860.25 154.016V151.859ZM883.031 164.469C879.953 164.469 877.531 163.273 875.766 160.883C874.016 158.492 873.141 155.18 873.141 150.945C873.141 146.648 874.031 143.305 875.812 140.914C877.609 138.508 880.078 137.305 883.219 137.305C886.516 137.305 889.031 138.586 890.766 141.148H891C890.641 139.195 890.461 137.453 890.461 135.922V127.531H897.633V164H892.148L890.766 160.602H890.461C888.836 163.18 886.359 164.469 883.031 164.469ZM885.539 158.773C887.367 158.773 888.703 158.242 889.547 157.18C890.406 156.117 890.875 154.312 890.953 151.766V150.992C890.953 148.18 890.516 146.164 889.641 144.945C888.781 143.727 887.375 143.117 885.422 143.117C883.828 143.117 882.586 143.797 881.695 145.156C880.82 146.5 880.383 148.461 880.383 151.039C880.383 153.617 880.828 155.555 881.719 156.852C882.609 158.133 883.883 158.773 885.539 158.773ZM904.805 131.023C904.805 128.695 906.102 127.531 908.695 127.531C911.289 127.531 912.586 128.695 912.586 131.023C912.586 132.133 912.258 133 911.602 133.625C910.961 134.234 909.992 134.539 908.695 134.539C906.102 134.539 904.805 133.367 904.805 131.023ZM912.258 164H905.109V137.797H912.258V164ZM943.969 164H936.82V148.695C936.82 146.805 936.484 145.391 935.812 144.453C935.141 143.5 934.07 143.023 932.602 143.023C930.602 143.023 929.156 143.695 928.266 145.039C927.375 146.367 926.93 148.578 926.93 151.672V164H919.781V137.797H925.242L926.203 141.148H926.602C927.398 139.883 928.492 138.93 929.883 138.289C931.289 137.633 932.883 137.305 934.664 137.305C937.711 137.305 940.023 138.133 941.602 139.789C943.18 141.43 943.969 143.805 943.969 146.914V164ZM974.133 137.797V141.43L970.031 142.484C970.781 143.656 971.156 144.969 971.156 146.422C971.156 149.234 970.172 151.43 968.203 153.008C966.25 154.57 963.531 155.352 960.047 155.352L958.758 155.281L957.703 155.164C956.969 155.727 956.602 156.352 956.602 157.039C956.602 158.07 957.914 158.586 960.539 158.586H964.992C967.867 158.586 970.055 159.203 971.555 160.438C973.07 161.672 973.828 163.484 973.828 165.875C973.828 168.938 972.547 171.312 969.984 173C967.438 174.688 963.773 175.531 958.992 175.531C955.336 175.531 952.539 174.891 950.602 173.609C948.68 172.344 947.719 170.562 947.719 168.266C947.719 166.688 948.211 165.367 949.195 164.305C950.18 163.242 951.625 162.484 953.531 162.031C952.797 161.719 952.156 161.211 951.609 160.508C951.062 159.789 950.789 159.031 950.789 158.234C950.789 157.234 951.078 156.406 951.656 155.75C952.234 155.078 953.07 154.422 954.164 153.781C952.789 153.188 951.695 152.234 950.883 150.922C950.086 149.609 949.688 148.062 949.688 146.281C949.688 143.422 950.617 141.211 952.477 139.648C954.336 138.086 956.992 137.305 960.445 137.305C961.18 137.305 962.047 137.375 963.047 137.516C964.062 137.641 964.711 137.734 964.992 137.797H974.133ZM953.906 167.703C953.906 168.688 954.375 169.461 955.312 170.023C956.266 170.586 957.594 170.867 959.297 170.867C961.859 170.867 963.867 170.516 965.32 169.812C966.773 169.109 967.5 168.148 967.5 166.93C967.5 165.945 967.07 165.266 966.211 164.891C965.352 164.516 964.023 164.328 962.227 164.328H958.523C957.211 164.328 956.109 164.633 955.219 165.242C954.344 165.867 953.906 166.688 953.906 167.703ZM956.508 146.375C956.508 147.797 956.828 148.922 957.469 149.75C958.125 150.578 959.117 150.992 960.445 150.992C961.789 150.992 962.773 150.578 963.398 149.75C964.023 148.922 964.336 147.797 964.336 146.375C964.336 143.219 963.039 141.641 960.445 141.641C957.82 141.641 956.508 143.219 956.508 146.375ZM1019.58 164H1012.34V149.211H998.766V164H991.5V129.734H998.766V143.164H1012.34V129.734H1019.58V164ZM1046.25 164L1045.29 160.648H1044.91C1044.15 161.867 1043.06 162.812 1041.66 163.484C1040.25 164.141 1038.65 164.469 1036.85 164.469C1033.77 164.469 1031.45 163.648 1029.89 162.008C1028.33 160.352 1027.55 157.977 1027.55 154.883V137.797H1034.7V153.102C1034.7 154.992 1035.03 156.414 1035.7 157.367C1036.38 158.305 1037.45 158.773 1038.91 158.773C1040.91 158.773 1042.36 158.109 1043.25 156.781C1044.14 155.438 1044.59 153.219 1044.59 150.125V137.797H1051.73V164H1046.25ZM1082.7 164H1075.55V148.695C1075.55 146.805 1075.23 145.391 1074.59 144.453C1073.96 143.5 1072.97 143.023 1071.61 143.023C1069.78 143.023 1068.45 143.695 1067.62 145.039C1066.8 146.383 1066.38 148.594 1066.38 151.672V164H1059.23V137.797H1064.7L1065.66 141.148H1066.05C1066.76 139.945 1067.77 139.008 1069.1 138.336C1070.43 137.648 1071.95 137.305 1073.67 137.305C1077.59 137.305 1080.25 138.586 1081.64 141.148H1082.27C1082.98 139.93 1084.01 138.984 1085.37 138.312C1086.74 137.641 1088.29 137.305 1090.01 137.305C1092.98 137.305 1095.22 138.07 1096.73 139.602C1098.27 141.117 1099.03 143.555 1099.03 146.914V164H1091.86V148.695C1091.86 146.805 1091.54 145.391 1090.9 144.453C1090.27 143.5 1089.28 143.023 1087.92 143.023C1086.17 143.023 1084.86 143.648 1083.98 144.898C1083.12 146.148 1082.7 148.133 1082.7 150.852V164ZM1123.03 164L1121.65 160.438H1121.46C1120.26 161.953 1119.02 163.008 1117.73 163.602C1116.47 164.18 1114.81 164.469 1112.77 164.469C1110.25 164.469 1108.27 163.75 1106.81 162.312C1105.38 160.875 1104.66 158.828 1104.66 156.172C1104.66 153.391 1105.62 151.344 1107.56 150.031C1109.52 148.703 1112.45 147.969 1116.38 147.828L1120.92 147.688V146.539C1120.92 143.883 1119.56 142.555 1116.84 142.555C1114.75 142.555 1112.29 143.188 1109.46 144.453L1107.09 139.625C1110.11 138.047 1113.45 137.258 1117.12 137.258C1120.64 137.258 1123.34 138.023 1125.21 139.555C1127.09 141.086 1128.02 143.414 1128.02 146.539V164H1123.03ZM1120.92 151.859L1118.16 151.953C1116.08 152.016 1114.53 152.391 1113.52 153.078C1112.5 153.766 1111.99 154.812 1111.99 156.219C1111.99 158.234 1113.15 159.242 1115.46 159.242C1117.12 159.242 1118.44 158.766 1119.42 157.812C1120.42 156.859 1120.92 155.594 1120.92 154.016V151.859ZM1159.59 164H1152.45V148.695C1152.45 146.805 1152.11 145.391 1151.44 144.453C1150.77 143.5 1149.7 143.023 1148.23 143.023C1146.23 143.023 1144.78 143.695 1143.89 145.039C1143 146.367 1142.55 148.578 1142.55 151.672V164H1135.41V137.797H1140.87L1141.83 141.148H1142.23C1143.02 139.883 1144.12 138.93 1145.51 138.289C1146.91 137.633 1148.51 137.305 1150.29 137.305C1153.34 137.305 1155.65 138.133 1157.23 139.789C1158.8 141.43 1159.59 143.805 1159.59 146.914V164ZM1166.65 131.023C1166.65 128.695 1167.95 127.531 1170.54 127.531C1173.13 127.531 1174.43 128.695 1174.43 131.023C1174.43 132.133 1174.1 133 1173.45 133.625C1172.8 134.234 1171.84 134.539 1170.54 134.539C1167.95 134.539 1166.65 133.367 1166.65 131.023ZM1174.1 164H1166.95V137.797H1174.1V164ZM1192.66 158.773C1193.91 158.773 1195.41 158.5 1197.16 157.953V163.273C1195.38 164.07 1193.2 164.469 1190.6 164.469C1187.74 164.469 1185.66 163.75 1184.34 162.312C1183.05 160.859 1182.4 158.688 1182.4 155.797V143.164H1178.98V140.141L1182.91 137.75L1184.98 132.219H1189.55V137.797H1196.88V143.164H1189.55V155.797C1189.55 156.812 1189.83 157.562 1190.39 158.047C1190.97 158.531 1191.73 158.773 1192.66 158.773ZM1198.73 137.797H1206.56L1211.51 152.539C1211.93 153.82 1212.22 155.336 1212.38 157.086H1212.52C1212.69 155.477 1213.02 153.961 1213.52 152.539L1218.38 137.797H1226.04L1214.95 167.352C1213.94 170.086 1212.48 172.133 1210.59 173.492C1208.72 174.852 1206.52 175.531 1204.01 175.531C1202.77 175.531 1201.56 175.398 1200.38 175.133V169.461C1201.23 169.664 1202.17 169.766 1203.19 169.766C1204.45 169.766 1205.55 169.375 1206.49 168.594C1207.45 167.828 1208.19 166.664 1208.72 165.102L1209.14 163.812L1198.73 137.797Z" fill="white"/>
<rect opacity="0.8" x="408.706" y="295.2" width="43" height="362.351" transform="rotate(-170 408.706 295.2)" fill="#2BFE09"/>
<rect opacity="0.8" x="373.706" y="322.2" width="43" height="362.351" transform="rotate(-170 373.706 322.2)" fill="#FEF409"/>
<rect opacity="0.8" x="333.706" y="354.2" width="43" height="362.351" transform="rotate(-170 333.706 354.2)" fill="#2B09FE"/>
<path d="M-8.77781 63.3721L389.592 465.985L-152.47 611.23L-8.77781 63.3721Z" fill="#2237F3"/>
<path d="M-115.906 44.4423L381.236 -131.714L291.006 380.007L-115.906 44.4423Z" fill="#E60303"/>
<rect y="-90" width="1280" height="94" fill="#59357B"/>
</g>
<defs>
<filter id="filter0_d_0_1" x="-4" y="0" width="1288" height="472" filterUnits="userSpaceOnUse" color-interpolation-filters="sRGB">
<feFlood flood-opacity="0" result="BackgroundImageFix"/>
<feColorMatrix in="SourceAlpha" type="matrix" values="0 0 0 0 0 0 0 0 0 0 0 0 0 0 0 0 0 0 127 0" result="hardAlpha"/>
<feOffset dy="4"/>
<feGaussianBlur stdDeviation="2"/>
<feComposite in2="hardAlpha" operator="out"/>
<feColorMatrix type="matrix" values="0 0 0 0 0 0 0 0 0 0 0 0 0 0 0 0 0 0 0.25 0"/>
<feBlend mode="normal" in2="BackgroundImageFix" result="effect1_dropShadow_0_1"/>
<feBlend mode="normal" in="SourceGraphic" in2="effect1_dropShadow_0_1" result="shape"/>
</filter>
<clipPath id="clip0_0_1">
<rect width="1280" height="720" fill="white" transform="translate(0 -90)"/>
</clipPath>
</defs>
</svg>
